<svg xmlns="http://www.w3.org/2000/svg" xmlns:xlink="http://www.w3.org/1999/xlink" width="377" zoomAndPan="magnify" viewBox="0 0 282.75 162.749997" height="217" preserveAspectRatio="xMidYMid meet" version="1.0"><defs><filter x="0%" y="0%" width="100%" height="100%" id="b77b20a41d"><feColorMatrix values="0 0 0 0 1 0 0 0 0 1 0 0 0 0 1 0 0 0 1 0" color-interpolation-filters="sRGB"/></filter><clipPath id="bd64e575d1"><path d="M 0.09375 0 L 282.410156 0 L 282.410156 162.5 L 0.09375 162.5 Z M 0.09375 0 " clip-rule="nonzero"/></clipPath><mask id="8452c5b55f"><g filter="url(#b77b20a41d)"><rect x="-28.275" width="339.3" fill="#000000" y="-16.275" height="195.299996" fill-opacity="0.7"/></g></mask><clipPath id="50e1c085c9"><path d="M 0.09375 0 L 281.773438 0 L 281.773438 162.410156 L 0.09375 162.410156 Z M 0.09375 0 " clip-rule="nonzero"/></clipPath><clipPath id="6208082b0d"><path d="M 38.285156 0 L 243.519531 0 C 253.652344 0 263.363281 4.023438 270.527344 11.1875 C 277.6875 18.347656 281.710938 28.0625 281.710938 38.191406 L 281.710938 124.21875 C 281.710938 134.347656 277.6875 144.0625 270.527344 151.222656 C 263.363281 158.386719 253.652344 162.410156 243.519531 162.410156 L 38.285156 162.410156 C 28.15625 162.410156 18.441406 158.386719 11.277344 151.222656 C 4.117188 144.0625 0.09375 134.347656 0.09375 124.21875 L 0.09375 38.191406 C 0.09375 28.0625 4.117188 18.347656 11.277344 11.1875 C 18.441406 4.023438 28.15625 0 38.285156 0 Z M 38.285156 0 " clip-rule="nonzero"/></clipPath><clipPath id="d267f351f3"><path d="M 0.09375 0 L 281.773438 0 L 281.773438 162.410156 L 0.09375 162.410156 Z M 0.09375 0 " clip-rule="nonzero"/></clipPath><clipPath id="ddace55719"><path d="M 38.285156 0 L 243.519531 0 C 253.652344 0 263.363281 4.023438 270.527344 11.1875 C 277.6875 18.347656 281.710938 28.0625 281.710938 38.191406 L 281.710938 124.21875 C 281.710938 134.347656 277.6875 144.0625 270.527344 151.222656 C 263.363281 158.386719 253.652344 162.410156 243.519531 162.410156 L 38.285156 162.410156 C 28.15625 162.410156 18.441406 158.386719 11.277344 151.222656 C 4.117188 144.0625 0.09375 134.347656 0.09375 124.21875 L 0.09375 38.191406 C 0.09375 28.0625 4.117188 18.347656 11.277344 11.1875 C 18.441406 4.023438 28.15625 0 38.285156 0 Z M 38.285156 0 " clip-rule="nonzero"/></clipPath><clipPath id="eb566a8c42"><rect x="0" width="282" y="0" height="163"/></clipPath><clipPath id="bcab733798"><path d="M 0.09375 0 L 281.660156 0 L 281.660156 162.5 L 0.09375 162.5 Z M 0.09375 0 " clip-rule="nonzero"/></clipPath><clipPath id="838e4b39af"><path d="M 38.28125 0 L 243.515625 0 C 253.644531 0 263.359375 4.023438 270.519531 11.1875 C 277.683594 18.347656 281.707031 28.0625 281.707031 38.191406 L 281.707031 124.214844 C 281.707031 134.34375 277.683594 144.058594 270.519531 151.222656 C 263.359375 158.382812 253.644531 162.40625 243.515625 162.40625 L 38.28125 162.40625 C 28.152344 162.40625 18.441406 158.382812 11.277344 151.222656 C 4.117188 144.058594 0.09375 134.34375 0.09375 124.214844 L 0.09375 38.191406 C 0.09375 28.0625 4.117188 18.347656 11.277344 11.1875 C 18.441406 4.023438 28.152344 0 38.28125 0 Z M 38.28125 0 " clip-rule="nonzero"/></clipPath><clipPath id="5b66a59e03"><rect x="0" width="283" y="0" height="163"/></clipPath></defs><g clip-path="url(#bd64e575d1)"><g mask="url(#8452c5b55f)"><g transform="matrix(1, 0, 0, 1, 0, 0)"><g clip-path="url(#5b66a59e03)"><g clip-path="url(#50e1c085c9)"><g clip-path="url(#6208082b0d)"><g transform="matrix(1, 0, 0, 1, 0, 0)"><g clip-path="url(#eb566a8c42)"><g clip-path="url(#d267f351f3)"><g clip-path="url(#ddace55719)"><path fill="#fedf10" d="M 0.09375 0 L 281.773438 0 L 281.773438 162.410156 L 0.09375 162.410156 Z M 0.09375 0 " fill-opacity="1" fill-rule="nonzero"/></g></g></g></g></g></g><g clip-path="url(#bcab733798)"><g clip-path="url(#838e4b39af)"><path stroke-linecap="butt" transform="matrix(0.74885, 0, 0, 0.74885, 0.0920271, -0.000000000000021284)" fill="none" stroke-linejoin="miter" d="M 50.997183 0.000000000000028422 L 325.06338 0.000000000000028422 C 338.589335 0.000000000000028422 351.562358 5.372824 361.123898 14.939581 C 370.690655 24.501122 376.063479 37.474145 376.063479 51.000099 L 376.063479 165.87421 C 376.063479 179.400164 370.690655 192.373187 361.123898 201.939944 C 351.562358 211.501485 338.589335 216.874309 325.06338 216.874309 L 50.997183 216.874309 C 37.471229 216.874309 24.503422 211.501485 14.936665 201.939944 C 5.375125 192.373187 0.00230067 179.400164 0.00230067 165.87421 L 0.00230067 51.000099 C 0.00230067 37.474145 5.375125 24.501122 14.936665 14.939581 C 24.503422 5.372824 37.471229 0.000000000000028422 50.997183 0.000000000000028422 Z M 50.997183 0.000000000000028422 " stroke="#106b0b" stroke-width="12" stroke-opacity="1" stroke-miterlimit="4"/></g></g></g></g></g></g></svg>