<svg xmlns="http://www.w3.org/2000/svg" xmlns:xlink="http://www.w3.org/1999/xlink" width="500" zoomAndPan="magnify" viewBox="0 0 375 374.999991" height="500" preserveAspectRatio="xMidYMid meet" version="1.0"><defs><filter x="0%" y="0%" width="100%" height="100%" id="61af7645f6"><feColorMatrix values="0 0 0 0 1 0 0 0 0 1 0 0 0 0 1 0 0 0 1 0" color-interpolation-filters="sRGB"/></filter><mask id="a249a3d548"><g filter="url(#61af7645f6)"><rect x="-37.5" width="450" fill="#000000" y="-37.499999" height="449.999989" fill-opacity="0.71"/></g></mask><clipPath id="d6e1b277a9"><path d="M 0.851562 0.824219 L 334.609375 0.824219 L 334.609375 158.175781 L 0.851562 158.175781 Z M 0.851562 0.824219 " clip-rule="nonzero"/></clipPath><clipPath id="0355431042"><path d="M 27.851562 0.824219 L 307.148438 0.824219 C 322.0625 0.824219 334.148438 12.914062 334.148438 27.824219 L 334.148438 131.175781 C 334.148438 146.085938 322.0625 158.175781 307.148438 158.175781 L 27.851562 158.175781 C 12.9375 158.175781 0.851562 146.085938 0.851562 131.175781 L 0.851562 27.824219 C 0.851562 12.914062 12.9375 0.824219 27.851562 0.824219 Z M 27.851562 0.824219 " clip-rule="nonzero"/></clipPath><clipPath id="f71cb673c0"><path d="M 0.851562 0.824219 L 334 0.824219 L 334 158.175781 L 0.851562 158.175781 Z M 0.851562 0.824219 " clip-rule="nonzero"/></clipPath><clipPath id="0220aa2251"><path d="M 27.851562 0.824219 L 307.148438 0.824219 C 322.0625 0.824219 334.148438 12.914062 334.148438 27.824219 L 334.148438 131.175781 C 334.148438 146.085938 322.0625 158.175781 307.148438 158.175781 L 27.851562 158.175781 C 12.9375 158.175781 0.851562 146.085938 0.851562 131.175781 L 0.851562 27.824219 C 0.851562 12.914062 12.9375 0.824219 27.851562 0.824219 Z M 27.851562 0.824219 " clip-rule="nonzero"/></clipPath><clipPath id="efbb23beec"><rect x="0" width="335" y="0" height="159"/></clipPath><clipPath id="1c23a4bbde"><rect x="0" width="335" y="0" height="159"/></clipPath></defs><g mask="url(#a249a3d548)"><g transform="matrix(1, 0, 0, 1, 20, 108)"><g clip-path="url(#1c23a4bbde)"><g clip-path="url(#d6e1b277a9)"><g clip-path="url(#0355431042)"><g><g clip-path="url(#efbb23beec)"><g clip-path="url(#f71cb673c0)"><g clip-path="url(#0220aa2251)"><path fill="#e2a9f1" d="M 0.851562 0.824219 L 333.996094 0.824219 L 333.996094 158.175781 L 0.851562 158.175781 Z M 0.851562 0.824219 " fill-opacity="1" fill-rule="nonzero"/></g></g></g></g></g></g></g></g></g></svg>