<svg xmlns="http://www.w3.org/2000/svg" xmlns:xlink="http://www.w3.org/1999/xlink" width="781" zoomAndPan="magnify" viewBox="0 0 585.75 845.249974" height="1127" preserveAspectRatio="xMidYMid meet" version="1.0"><defs><filter x="0%" y="0%" width="100%" height="100%" id="c54c5aa993"><feColorMatrix values="0 0 0 0 1 0 0 0 0 1 0 0 0 0 1 0 0 0 1 0" color-interpolation-filters="sRGB"/></filter><clipPath id="a4e9ff36b4"><path d="M 0.132812 0 L 585.367188 0 L 585.367188 844.5 L 0.132812 844.5 Z M 0.132812 0 " clip-rule="nonzero"/></clipPath><mask id="9b9de9d901"><g filter="url(#c54c5aa993)"><rect x="-58.575" width="702.9" fill="#000000" y="-84.524997" height="1014.299969" fill-opacity="0.57"/></g></mask><clipPath id="270e295269"><path d="M 0.132812 0 L 585.238281 0 L 585.238281 844.5 L 0.132812 844.5 Z M 0.132812 0 " clip-rule="nonzero"/></clipPath><clipPath id="aa1964314e"><path d="M 38.351562 0 L 547.023438 0 C 557.160156 0 566.878906 4.027344 574.046875 11.191406 C 581.214844 18.359375 585.238281 28.082031 585.238281 38.214844 L 585.238281 806.0625 C 585.238281 816.199219 581.214844 825.921875 574.046875 833.085938 C 566.878906 840.253906 557.160156 844.28125 547.023438 844.28125 L 38.351562 844.28125 C 28.214844 844.28125 18.496094 840.253906 11.328125 833.085938 C 4.160156 825.921875 0.132812 816.199219 0.132812 806.0625 L 0.132812 38.214844 C 0.132812 28.082031 4.160156 18.359375 11.328125 11.191406 C 18.496094 4.027344 28.214844 0 38.351562 0 Z M 38.351562 0 " clip-rule="nonzero"/></clipPath><clipPath id="114745a50b"><path d="M 0.132812 0 L 585.238281 0 L 585.238281 844 L 0.132812 844 Z M 0.132812 0 " clip-rule="nonzero"/></clipPath><clipPath id="cc925b7868"><path d="M 38.351562 0 L 547.023438 0 C 557.160156 0 566.878906 4.027344 574.046875 11.191406 C 581.214844 18.359375 585.238281 28.082031 585.238281 38.214844 L 585.238281 806.0625 C 585.238281 816.199219 581.214844 825.921875 574.046875 833.085938 C 566.878906 840.253906 557.160156 844.28125 547.023438 844.28125 L 38.351562 844.28125 C 28.214844 844.28125 18.496094 840.253906 11.328125 833.085938 C 4.160156 825.921875 0.132812 816.199219 0.132812 806.0625 L 0.132812 38.214844 C 0.132812 28.082031 4.160156 18.359375 11.328125 11.191406 C 18.496094 4.027344 28.214844 0 38.351562 0 Z M 38.351562 0 " clip-rule="nonzero"/></clipPath><clipPath id="a2f95f9793"><rect x="0" width="586" y="0" height="845"/></clipPath><clipPath id="bfc8d20dd1"><rect x="0" width="586" y="0" height="845"/></clipPath></defs><g clip-path="url(#a4e9ff36b4)"><g mask="url(#9b9de9d901)"><g transform="matrix(1, 0, 0, 1, 0.000000000000000028, 0)"><g clip-path="url(#bfc8d20dd1)"><g clip-path="url(#270e295269)"><g clip-path="url(#aa1964314e)"><g transform="matrix(1, 0, 0, 1, 0.000000000000000028, 0)"><g clip-path="url(#a2f95f9793)"><g clip-path="url(#114745a50b)"><g clip-path="url(#cc925b7868)"><path fill="#ffffff" d="M 0.132812 0 L 585.238281 0 L 585.238281 843.375 L 0.132812 843.375 Z M 0.132812 0 " fill-opacity="1" fill-rule="nonzero"/></g></g></g></g></g></g></g></g></g></g></svg>