<svg xmlns="http://www.w3.org/2000/svg" xmlns:xlink="http://www.w3.org/1999/xlink" width="719" zoomAndPan="magnify" viewBox="0 0 539.25 128.249994" height="171" preserveAspectRatio="xMidYMid meet" version="1.0"><defs><filter x="0%" y="0%" width="100%" height="100%" id="8ece7bcce3"><feColorMatrix values="0 0 0 0 1 0 0 0 0 1 0 0 0 0 1 0 0 0 1 0" color-interpolation-filters="sRGB"/></filter><clipPath id="4a7ace51be"><path d="M 1.195312 0 L 537.308594 0 L 537.308594 127.503906 L 1.195312 127.503906 Z M 1.195312 0 " clip-rule="nonzero"/></clipPath><mask id="ef882d110b"><g filter="url(#8ece7bcce3)"><rect x="-53.925" width="647.1" fill="#000000" y="-12.824999" height="153.899993" fill-opacity="0.7"/></g></mask><clipPath id="53529199ca"><path d="M 0.195312 0 L 536 0 L 536 126.96875 L 0.195312 126.96875 Z M 0.195312 0 " clip-rule="nonzero"/></clipPath><clipPath id="85f6f4568c"><path d="M 38.222656 0 L 497.84375 0 C 518.84375 0 535.871094 17.027344 535.871094 38.027344 L 535.871094 88.941406 C 535.871094 109.945312 518.84375 126.96875 497.84375 126.96875 L 38.222656 126.96875 C 17.21875 126.96875 0.195312 109.945312 0.195312 88.941406 L 0.195312 38.027344 C 0.195312 17.027344 17.21875 0 38.222656 0 Z M 38.222656 0 " clip-rule="nonzero"/></clipPath><clipPath id="838e995f1c"><path d="M 0.195312 0 L 536 0 L 536 126.96875 L 0.195312 126.96875 Z M 0.195312 0 " clip-rule="nonzero"/></clipPath><clipPath id="08160adde7"><path d="M 38.222656 0 L 497.84375 0 C 518.84375 0 535.871094 17.027344 535.871094 38.027344 L 535.871094 88.941406 C 535.871094 109.945312 518.84375 126.96875 497.84375 126.96875 L 38.222656 126.96875 C 17.21875 126.96875 0.195312 109.945312 0.195312 88.941406 L 0.195312 38.027344 C 0.195312 17.027344 17.21875 0 38.222656 0 Z M 38.222656 0 " clip-rule="nonzero"/></clipPath><clipPath id="f3bd018f25"><rect x="0" width="536" y="0" height="127"/></clipPath><clipPath id="9c3fd29ebb"><path d="M 0.195312 0 L 535.5625 0 L 535.5625 126.757812 L 0.195312 126.757812 Z M 0.195312 0 " clip-rule="nonzero"/></clipPath><clipPath id="36d58da596"><path d="M 38.222656 0 L 497.839844 0 C 518.839844 0 535.867188 17.027344 535.867188 38.027344 L 535.867188 88.941406 C 535.867188 109.941406 518.839844 126.96875 497.839844 126.96875 L 38.222656 126.96875 C 17.21875 126.96875 0.195312 109.941406 0.195312 88.941406 L 0.195312 38.027344 C 0.195312 17.027344 17.21875 0 38.222656 0 Z M 38.222656 0 " clip-rule="nonzero"/></clipPath><clipPath id="287625a86e"><rect x="0" width="537" y="0" height="128"/></clipPath></defs><g clip-path="url(#4a7ace51be)"><g mask="url(#ef882d110b)"><g transform="matrix(1, 0, 0, 1, 1, 0.000000000000020212)"><g clip-path="url(#287625a86e)"><g clip-path="url(#53529199ca)"><g clip-path="url(#85f6f4568c)"><g transform="matrix(1, 0, 0, 1, 0, 0.000000000000020212)"><g clip-path="url(#f3bd018f25)"><g clip-path="url(#838e995f1c)"><g clip-path="url(#08160adde7)"><path fill="#fedf10" d="M 0.195312 0 L 535.84375 0 L 535.84375 126.96875 L 0.195312 126.96875 Z M 0.195312 0 " fill-opacity="1" fill-rule="nonzero"/></g></g></g></g></g></g><g clip-path="url(#9c3fd29ebb)"><g clip-path="url(#36d58da596)"><path stroke-linecap="butt" transform="matrix(0.745639, 0, 0, 0.745639, 0.194779, -0.00000198836)" fill="none" stroke-linejoin="miter" d="M 51.000357 0.00000266665 L 667.407126 0.00000266665 C 695.570873 0.00000266665 718.406768 22.835898 718.406768 50.999645 L 718.406768 119.282062 C 718.406768 147.445809 695.570873 170.281705 667.407126 170.281705 L 51.000357 170.281705 C 22.831372 170.281705 0.000715275 147.445809 0.000715275 119.282062 L 0.000715275 50.999645 C 0.000715275 22.835898 22.831372 0.00000266665 51.000357 0.00000266665 Z M 51.000357 0.00000266665 " stroke="#106b0b" stroke-width="12" stroke-opacity="1" stroke-miterlimit="4"/></g></g></g></g></g></g></svg>