<svg xmlns="http://www.w3.org/2000/svg" xmlns:xlink="http://www.w3.org/1999/xlink" width="900" zoomAndPan="magnify" viewBox="0 0 675 374.999991" height="500" preserveAspectRatio="xMidYMid meet" version="1.0"><defs><filter x="0%" y="0%" width="100%" height="100%" id="82ecb85ca1"><feColorMatrix values="0 0 0 0 1 0 0 0 0 1 0 0 0 0 1 0 0 0 1 0" color-interpolation-filters="sRGB"/></filter><mask id="a73e3f96a2"><g filter="url(#82ecb85ca1)"><rect x="-67.5" width="810" fill="#000000" y="-37.499999" height="449.999989" fill-opacity="0.7"/></g></mask><clipPath id="76ecd20e9f"><path d="M 0 0 L 675 0 L 675 374.535156 L 0 374.535156 Z M 0 0 " clip-rule="nonzero"/></clipPath><clipPath id="dd13d64e05"><path d="M 38.25 0 L 636.476562 0 C 646.621094 0 656.351562 4.03125 663.523438 11.203125 C 670.695312 18.375 674.726562 28.105469 674.726562 38.25 L 674.726562 336.285156 C 674.726562 346.429688 670.695312 356.160156 663.523438 363.332031 C 656.351562 370.503906 646.621094 374.535156 636.476562 374.535156 L 38.25 374.535156 C 28.105469 374.535156 18.375 370.503906 11.203125 363.332031 C 4.03125 356.160156 0 346.429688 0 336.285156 L 0 38.25 C 0 28.105469 4.03125 18.375 11.203125 11.203125 C 18.375 4.03125 28.105469 0 38.25 0 Z M 38.25 0 " clip-rule="nonzero"/></clipPath><clipPath id="ec43552876"><path d="M 0 0 L 674.878906 0 L 674.878906 374.535156 L 0 374.535156 Z M 0 0 " clip-rule="nonzero"/></clipPath><clipPath id="4ce23ee88d"><path d="M 38.25 0 L 636.476562 0 C 646.621094 0 656.351562 4.03125 663.523438 11.203125 C 670.695312 18.375 674.726562 28.105469 674.726562 38.25 L 674.726562 336.285156 C 674.726562 346.429688 670.695312 356.160156 663.523438 363.332031 C 656.351562 370.503906 646.621094 374.535156 636.476562 374.535156 L 38.25 374.535156 C 28.105469 374.535156 18.375 370.503906 11.203125 363.332031 C 4.03125 356.160156 0 346.429688 0 336.285156 L 0 38.25 C 0 28.105469 4.03125 18.375 11.203125 11.203125 C 18.375 4.03125 28.105469 0 38.25 0 Z M 38.25 0 " clip-rule="nonzero"/></clipPath><clipPath id="64e2837666"><rect x="0" width="675" y="0" height="375"/></clipPath><clipPath id="b9f5b80e88"><path d="M 0 0 L 675 0 L 675 374.25 L 0 374.25 Z M 0 0 " clip-rule="nonzero"/></clipPath><clipPath id="db782db5bb"><path d="M 38.25 0 L 636.46875 0 C 646.613281 0 656.34375 4.03125 663.515625 11.203125 C 670.6875 18.375 674.71875 28.105469 674.71875 38.25 L 674.71875 336.28125 C 674.71875 346.425781 670.6875 356.15625 663.515625 363.328125 C 656.34375 370.5 646.613281 374.53125 636.46875 374.53125 L 38.25 374.53125 C 28.105469 374.53125 18.375 370.5 11.203125 363.328125 C 4.03125 356.15625 0 346.425781 0 336.28125 L 0 38.25 C 0 28.105469 4.03125 18.375 11.203125 11.203125 C 18.375 4.03125 28.105469 0 38.25 0 Z M 38.25 0 " clip-rule="nonzero"/></clipPath><clipPath id="2d3f491e38"><rect x="0" width="675" y="0" height="375"/></clipPath></defs><g mask="url(#a73e3f96a2)"><g transform="matrix(1, 0, 0, 1, 0, 0)"><g clip-path="url(#2d3f491e38)"><g clip-path="url(#76ecd20e9f)"><g clip-path="url(#dd13d64e05)"><g transform="matrix(1, 0, 0, 1, 0, 0)"><g clip-path="url(#64e2837666)"><g clip-path="url(#ec43552876)"><g clip-path="url(#4ce23ee88d)"><path fill="#fedf10" d="M 0 0 L 674.457031 0 L 674.457031 374.535156 L 0 374.535156 Z M 0 0 " fill-opacity="1" fill-rule="nonzero"/></g></g></g></g></g></g><g clip-path="url(#b9f5b80e88)"><g clip-path="url(#db782db5bb)"><path stroke-linecap="butt" transform="matrix(0.75, 0, 0, 0.75, 0.0000081, -0.0000000000279397)" fill="none" stroke-linejoin="miter" d="M 50.999993 0.0000000000372529 L 848.625045 0.0000000000372529 C 862.151087 0.0000000000372529 875.125047 5.375 884.687547 14.937501 C 894.250048 24.500002 899.625048 37.473961 899.625048 51.000003 L 899.625048 448.375029 C 899.625048 461.901072 894.250048 474.875031 884.687547 484.437532 C 875.125047 494.000032 862.151087 499.375033 848.625045 499.375033 L 50.999993 499.375033 C 37.47395 499.375033 24.499991 494.000032 14.93749 484.437532 C 5.37499 474.875031 -0.0000108 461.901072 -0.0000108 448.375029 L -0.0000108 51.000003 C -0.0000108 37.473961 5.37499 24.500002 14.93749 14.937501 C 24.499991 5.375 37.47395 0.0000000000372529 50.999993 0.0000000000372529 Z M 50.999993 0.0000000000372529 " stroke="#106b0b" stroke-width="30" stroke-opacity="1" stroke-miterlimit="4"/></g></g></g></g></g></svg>