<svg xmlns="http://www.w3.org/2000/svg" xmlns:xlink="http://www.w3.org/1999/xlink" width="304" zoomAndPan="magnify" viewBox="0 0 228 77.249999" height="103" preserveAspectRatio="xMidYMid meet" version="1.0"><defs><g/></defs><g fill="#106b0b" fill-opacity="1"><g transform="translate(13.020379, 50.747301)"><g><path d="M 23.304688 -29.808594 L 23.304688 -19.75 L 10.261719 -19.75 C 10.449219 -19.75 10.667969 -19.796875 10.921875 -19.894531 C 11.382812 -20.078125 11.777344 -20.371094 12.101562 -20.773438 C 12.417969 -21.160156 12.574219 -21.574219 12.574219 -22.015625 C 12.574219 -22.601562 12.441406 -23.121094 12.175781 -23.578125 C 12.089844 -23.726562 12.023438 -23.824219 11.972656 -23.867188 C 12.375 -23.496094 12.933594 -23.066406 13.644531 -22.582031 C 14.546875 -21.964844 15.515625 -21.296875 16.546875 -20.578125 C 17.742188 -19.753906 18.859375 -18.855469 19.90625 -17.894531 C 21.101562 -16.792969 22.089844 -15.617188 22.871094 -14.363281 C 23.898438 -12.722656 24.410156 -10.945312 24.410156 -9.027344 C 24.410156 -7.601562 24.230469 -6.171875 23.867188 -4.742188 C 23.457031 -3.117188 22.761719 -1.628906 21.78125 -0.28125 C 20.710938 1.195312 19.304688 2.367188 17.566406 3.238281 C 15.851562 4.097656 13.8125 4.523438 11.457031 4.523438 L -3.035156 4.523438 L -3.035156 -10.488281 L 11.285156 -10.488281 C 10.957031 -10.488281 10.625 -10.417969 10.292969 -10.277344 C 9.933594 -10.125 9.628906 -9.910156 9.375 -9.636719 C 9.140625 -9.386719 8.964844 -9.097656 8.847656 -8.777344 C 8.761719 -8.535156 8.71875 -8.308594 8.71875 -8.089844 C 8.71875 -7.617188 8.820312 -7.183594 9.027344 -6.792969 C 9.117188 -6.621094 9.199219 -6.5 9.277344 -6.429688 C 8.894531 -6.789062 8.367188 -7.195312 7.6875 -7.648438 C 6.78125 -8.25 5.8125 -8.90625 4.777344 -9.609375 C 3.550781 -10.445312 2.402344 -11.371094 1.328125 -12.394531 C 0.101562 -13.5625 -0.90625 -14.859375 -1.699219 -16.285156 C -2.644531 -17.988281 -3.121094 -19.855469 -3.121094 -21.886719 C -3.121094 -24.636719 -2.488281 -26.972656 -1.222656 -28.890625 C 0 -30.75 1.566406 -32.140625 3.464844 -33.054688 C 5.238281 -33.90625 7.019531 -34.332031 8.816406 -34.332031 L 23.304688 -34.332031 Z M 14.253906 -29.808594 L 18.78125 -29.808594 L 18.78125 -25.285156 L 8.816406 -25.285156 C 8.394531 -25.285156 7.921875 -25.15625 7.390625 -24.902344 C 6.996094 -24.710938 6.640625 -24.378906 6.335938 -23.914062 C 6.066406 -23.503906 5.929688 -22.828125 5.929688 -21.886719 C 5.929688 -21.421875 6.023438 -21.019531 6.210938 -20.679688 C 6.558594 -20.058594 7.007812 -19.480469 7.570312 -18.949219 C 8.285156 -18.265625 9.050781 -17.648438 9.871094 -17.089844 C 10.878906 -16.402344 11.828125 -15.765625 12.707031 -15.175781 C 13.820312 -14.4375 14.753906 -13.707031 15.507812 -12.988281 C 16.152344 -12.378906 16.660156 -11.71875 17.035156 -11.007812 C 17.523438 -10.078125 17.769531 -9.105469 17.769531 -8.089844 C 17.769531 -7.25 17.632812 -6.453125 17.359375 -5.703125 C 17.058594 -4.867188 16.609375 -4.128906 16.003906 -3.480469 C 15.382812 -2.808594 14.65625 -2.296875 13.828125 -1.945312 C 13.03125 -1.605469 12.183594 -1.4375 11.285156 -1.4375 L 1.492188 -1.4375 L 1.492188 -5.960938 L 6.015625 -5.960938 L 6.015625 0 L 1.492188 0 L 1.492188 -4.523438 L 11.457031 -4.523438 C 12.390625 -4.523438 13.078125 -4.636719 13.519531 -4.855469 C 13.9375 -5.066406 14.25 -5.3125 14.457031 -5.597656 C 14.753906 -6.007812 14.96875 -6.464844 15.097656 -6.964844 C 15.273438 -7.667969 15.363281 -8.355469 15.363281 -9.027344 C 15.363281 -9.214844 15.308594 -9.394531 15.199219 -9.566406 C 14.847656 -10.132812 14.371094 -10.6875 13.777344 -11.234375 C 13.035156 -11.917969 12.238281 -12.554688 11.386719 -13.148438 C 10.375 -13.847656 9.425781 -14.503906 8.542969 -15.105469 C 7.464844 -15.84375 6.558594 -16.546875 5.828125 -17.226562 C 4.292969 -18.644531 3.523438 -20.242188 3.523438 -22.015625 C 3.523438 -23.707031 4.035156 -25.183594 5.058594 -26.453125 C 5.738281 -27.296875 6.589844 -27.917969 7.613281 -28.320312 C 8.425781 -28.636719 9.308594 -28.796875 10.261719 -28.796875 L 18.78125 -28.796875 L 18.78125 -24.273438 L 14.253906 -24.273438 Z M 14.253906 -29.808594 "/></g></g></g><g fill="#106b0b" fill-opacity="1"><g transform="translate(34.311746, 50.747301)"><g><path d="M 7.539062 4.523438 L -2.4375 4.523438 L -2.4375 -34.332031 L 12.0625 -34.332031 L 12.0625 -19.121094 L 7.539062 -19.121094 L 7.539062 -23.644531 L 7.621094 -23.644531 L 7.621094 -19.121094 L 3.957031 -21.773438 C 5.097656 -23.347656 6.492188 -24.433594 8.140625 -25.035156 C 9.421875 -25.5 10.808594 -25.730469 12.308594 -25.730469 C 14.15625 -25.730469 15.921875 -25.308594 17.609375 -24.464844 C 19.375 -23.582031 20.824219 -22.296875 21.949219 -20.609375 C 23.136719 -18.828125 23.730469 -16.726562 23.730469 -14.308594 L 23.730469 4.523438 L 9.230469 4.523438 L 9.230469 -12.433594 C 9.230469 -12.511719 9.226562 -12.570312 9.222656 -12.613281 C 9.222656 -12.601562 9.230469 -12.578125 9.242188 -12.539062 C 9.316406 -12.296875 9.460938 -12.0625 9.675781 -11.832031 C 9.914062 -11.574219 10.1875 -11.394531 10.488281 -11.285156 C 10.566406 -11.257812 10.632812 -11.238281 10.691406 -11.230469 L 10.699219 -11.230469 C 10.6875 -11.230469 10.667969 -11.230469 10.644531 -11.230469 C 10.625 -11.230469 10.605469 -11.230469 10.589844 -11.230469 L 10.601562 -11.230469 C 10.660156 -11.238281 10.726562 -11.257812 10.804688 -11.285156 C 11.105469 -11.394531 11.375 -11.574219 11.617188 -11.832031 C 11.832031 -12.0625 11.976562 -12.296875 12.050781 -12.539062 C 12.0625 -12.578125 12.070312 -12.601562 12.070312 -12.613281 C 12.066406 -12.570312 12.0625 -12.511719 12.0625 -12.433594 L 12.0625 4.523438 Z M 7.539062 -4.523438 L 7.539062 0 L 3.011719 0 L 3.011719 -12.433594 C 3.011719 -14.734375 3.679688 -16.59375 5.011719 -18.019531 C 5.769531 -18.828125 6.6875 -19.425781 7.769531 -19.8125 C 8.648438 -20.125 9.605469 -20.28125 10.644531 -20.28125 C 11.683594 -20.28125 12.644531 -20.125 13.523438 -19.8125 C 14.601562 -19.425781 15.523438 -18.828125 16.28125 -18.019531 C 17.613281 -16.59375 18.28125 -14.734375 18.28125 -12.433594 L 18.28125 0 L 13.753906 0 L 13.753906 -4.523438 L 19.207031 -4.523438 L 19.207031 0 L 14.679688 0 L 14.679688 -14.308594 C 14.679688 -14.898438 14.59375 -15.328125 14.417969 -15.589844 C 14.179688 -15.945312 13.894531 -16.203125 13.5625 -16.371094 C 13.148438 -16.578125 12.730469 -16.683594 12.308594 -16.683594 C 11.871094 -16.683594 11.515625 -16.632812 11.234375 -16.527344 C 11.3125 -16.558594 11.375 -16.589844 11.421875 -16.625 C 11.394531 -16.605469 11.347656 -16.550781 11.289062 -16.464844 L 9.933594 -14.59375 L 3.011719 -14.59375 L 3.011719 -29.808594 L 7.539062 -29.808594 L 7.539062 -25.285156 L 2.085938 -25.285156 L 2.085938 -29.808594 L 6.613281 -29.808594 L 6.613281 0 L 2.085938 0 L 2.085938 -4.523438 Z M 7.539062 -4.523438 "/></g></g></g><g fill="#106b0b" fill-opacity="1"><g transform="translate(55.603114, 50.747301)"><g><path d="M 11.839844 -11.230469 C 11.597656 -11.230469 11.457031 -11.210938 11.421875 -11.175781 C 11.4375 -11.191406 11.445312 -11.203125 11.457031 -11.21875 C 11.453125 -11.210938 11.445312 -11.195312 11.4375 -11.167969 C 11.371094 -10.980469 11.339844 -10.707031 11.339844 -10.347656 C 11.339844 -9.988281 11.371094 -9.714844 11.4375 -9.527344 C 11.445312 -9.5 11.453125 -9.484375 11.457031 -9.476562 C 11.445312 -9.492188 11.4375 -9.503906 11.421875 -9.519531 C 11.457031 -9.484375 11.597656 -9.464844 11.839844 -9.464844 C 12.078125 -9.464844 12.21875 -9.484375 12.253906 -9.519531 C 12.242188 -9.503906 12.230469 -9.492188 12.222656 -9.476562 C 12.226562 -9.484375 12.230469 -9.5 12.242188 -9.527344 C 12.304688 -9.714844 12.339844 -9.988281 12.339844 -10.347656 C 12.339844 -10.707031 12.304688 -10.980469 12.242188 -11.167969 C 12.230469 -11.195312 12.226562 -11.210938 12.222656 -11.21875 C 12.230469 -11.203125 12.242188 -11.191406 12.253906 -11.175781 C 12.21875 -11.210938 12.078125 -11.230469 11.839844 -11.230469 Z M 11.839844 -20.28125 C 13.152344 -20.28125 14.375 -20.0625 15.507812 -19.625 C 16.71875 -19.15625 17.785156 -18.457031 18.703125 -17.527344 C 20.492188 -15.707031 21.386719 -13.316406 21.386719 -10.347656 C 21.386719 -7.378906 20.492188 -4.988281 18.703125 -3.171875 C 17.785156 -2.238281 16.71875 -1.539062 15.507812 -1.070312 C 14.375 -0.632812 13.152344 -0.414062 11.839844 -0.414062 C 10.523438 -0.414062 9.300781 -0.632812 8.171875 -1.070312 C 6.957031 -1.539062 5.890625 -2.238281 4.972656 -3.171875 C 3.183594 -4.988281 2.289062 -7.378906 2.289062 -10.347656 C 2.289062 -13.316406 3.183594 -15.707031 4.972656 -17.527344 C 5.890625 -18.457031 6.957031 -19.15625 8.171875 -19.625 C 9.300781 -20.0625 10.523438 -20.28125 11.839844 -20.28125 Z M 11.839844 -25.730469 C 14.875 -25.730469 17.542969 -25 19.847656 -23.535156 C 22.089844 -22.105469 23.824219 -20.21875 25.046875 -17.871094 C 26.242188 -15.582031 26.839844 -13.074219 26.839844 -10.347656 C 26.839844 -7.65625 26.246094 -5.160156 25.054688 -2.859375 C 23.832031 -0.492188 22.09375 1.40625 19.847656 2.839844 C 17.542969 4.304688 14.875 5.035156 11.839844 5.035156 C 8.835938 5.035156 6.179688 4.304688 3.867188 2.847656 C 1.597656 1.417969 -0.152344 -0.484375 -1.378906 -2.859375 C -2.566406 -5.160156 -3.164062 -7.65625 -3.164062 -10.347656 C -3.164062 -13.074219 -2.566406 -15.582031 -1.371094 -17.871094 C -0.144531 -20.226562 1.601562 -22.117188 3.867188 -23.542969 C 6.179688 -25.003906 8.835938 -25.730469 11.839844 -25.730469 Z M 11.839844 -16.683594 C 10.582031 -16.683594 9.53125 -16.417969 8.695312 -15.890625 C 7.808594 -15.328125 7.125 -14.59375 6.652344 -13.683594 C 6.140625 -12.707031 5.886719 -11.59375 5.886719 -10.347656 C 5.886719 -9.121094 6.144531 -8.011719 6.660156 -7.019531 C 7.132812 -6.101562 7.8125 -5.363281 8.695312 -4.808594 C 9.53125 -4.277344 10.582031 -4.015625 11.839844 -4.015625 C 13.117188 -4.015625 14.167969 -4.273438 14.988281 -4.796875 C 15.863281 -5.355469 16.539062 -6.09375 17.015625 -7.019531 C 17.53125 -8.011719 17.789062 -9.121094 17.789062 -10.347656 C 17.789062 -11.59375 17.535156 -12.707031 17.023438 -13.683594 C 16.546875 -14.601562 15.867188 -15.339844 14.988281 -15.898438 C 14.167969 -16.421875 13.117188 -16.683594 11.839844 -16.683594 Z M 11.839844 -16.683594 "/></g></g></g><g fill="#106b0b" fill-opacity="1"><g transform="translate(79.27912, 50.747301)"><g><path d="M 13.710938 -25.21875 L 23.941406 -25.21875 L 23.941406 -8.261719 C 23.941406 -8.175781 23.945312 -8.105469 23.953125 -8.046875 L 23.953125 -8.039062 C 23.910156 -8.199219 23.820312 -8.363281 23.6875 -8.542969 C 23.40625 -8.914062 23.058594 -9.183594 22.648438 -9.351562 C 22.460938 -9.425781 22.320312 -9.464844 22.230469 -9.464844 C 22.242188 -9.464844 22.25 -9.464844 22.253906 -9.464844 C 22.246094 -9.464844 22.230469 -9.460938 22.214844 -9.460938 C 22.136719 -9.449219 22.050781 -9.425781 21.957031 -9.390625 C 21.632812 -9.269531 21.34375 -9.070312 21.097656 -8.792969 C 20.894531 -8.566406 20.757812 -8.335938 20.6875 -8.105469 C 20.683594 -8.082031 20.675781 -8.066406 20.675781 -8.050781 L 20.675781 -8.058594 C 20.683594 -8.109375 20.683594 -8.175781 20.683594 -8.261719 L 20.683594 -25.21875 L 35.441406 -25.21875 L 35.441406 -6.898438 C 35.441406 -4.300781 34.8125 -2.074219 33.558594 -0.214844 C 32.34375 1.585938 30.75 2.933594 28.777344 3.824219 C 26.992188 4.632812 25.09375 5.035156 23.082031 5.035156 C 21.089844 5.035156 19.222656 4.601562 17.480469 3.726562 C 15.773438 2.875 14.226562 1.574219 12.84375 -0.175781 L 16.394531 -2.980469 L 20.1875 -0.511719 C 18.953125 1.378906 17.441406 2.785156 15.648438 3.707031 C 13.921875 4.59375 12.054688 5.035156 10.050781 5.035156 C 8.035156 5.035156 6.136719 4.632812 4.351562 3.824219 C 2.382812 2.933594 0.789062 1.585938 -0.429688 -0.214844 C -1.683594 -2.074219 -2.308594 -4.300781 -2.308594 -6.898438 L -2.308594 -25.21875 L 12.445312 -25.21875 L 12.445312 -8.261719 C 12.445312 -8.175781 12.449219 -8.109375 12.457031 -8.058594 L 12.457031 -8.050781 C 12.453125 -8.066406 12.449219 -8.082031 12.441406 -8.105469 C 12.371094 -8.335938 12.234375 -8.566406 12.035156 -8.792969 C 11.785156 -9.070312 11.496094 -9.269531 11.171875 -9.390625 C 11.078125 -9.425781 10.992188 -9.449219 10.914062 -9.460938 C 10.898438 -9.460938 10.886719 -9.464844 10.875 -9.464844 C 10.878906 -9.464844 10.890625 -9.464844 10.902344 -9.464844 C 10.808594 -9.464844 10.667969 -9.425781 10.484375 -9.351562 C 10.070312 -9.183594 9.722656 -8.914062 9.441406 -8.542969 C 9.308594 -8.363281 9.222656 -8.199219 9.179688 -8.039062 L 9.175781 -8.046875 C 9.183594 -8.105469 9.1875 -8.175781 9.1875 -8.261719 L 9.1875 -25.21875 Z M 13.710938 -16.171875 L 13.710938 -20.695312 L 18.238281 -20.695312 L 18.238281 -8.261719 C 18.238281 -6.199219 17.710938 -4.472656 16.660156 -3.082031 C 15.941406 -2.128906 15.015625 -1.421875 13.886719 -0.964844 C 12.980469 -0.597656 11.988281 -0.414062 10.902344 -0.414062 C 9.863281 -0.414062 8.902344 -0.578125 8.023438 -0.90625 C 6.953125 -1.304688 6.042969 -1.917969 5.296875 -2.746094 C 4.03125 -4.160156 3.394531 -6 3.394531 -8.261719 L 3.394531 -20.695312 L 7.921875 -20.695312 L 7.921875 -16.171875 L 2.214844 -16.171875 L 2.214844 -20.695312 L 6.738281 -20.695312 L 6.738281 -6.898438 C 6.738281 -6.148438 6.851562 -5.605469 7.070312 -5.277344 C 7.332031 -4.894531 7.667969 -4.609375 8.082031 -4.421875 C 8.683594 -4.148438 9.335938 -4.015625 10.050781 -4.015625 C 10.597656 -4.015625 11.089844 -4.125 11.519531 -4.34375 C 11.882812 -4.53125 12.246094 -4.902344 12.601562 -5.449219 L 16.039062 -10.726562 L 19.945312 -5.789062 C 20.492188 -5.09375 21.019531 -4.621094 21.527344 -4.367188 C 21.996094 -4.132812 22.515625 -4.015625 23.082031 -4.015625 C 23.792969 -4.015625 24.449219 -4.148438 25.046875 -4.421875 C 25.460938 -4.609375 25.800781 -4.894531 26.058594 -5.277344 C 26.28125 -5.605469 26.390625 -6.148438 26.390625 -6.898438 L 26.390625 -20.695312 L 30.917969 -20.695312 L 30.917969 -16.171875 L 25.210938 -16.171875 L 25.210938 -20.695312 L 29.734375 -20.695312 L 29.734375 -8.261719 C 29.734375 -6 29.101562 -4.160156 27.832031 -2.746094 C 27.085938 -1.917969 26.179688 -1.304688 25.109375 -0.90625 C 24.226562 -0.578125 23.269531 -0.414062 22.230469 -0.414062 C 21.144531 -0.414062 20.148438 -0.597656 19.242188 -0.964844 C 18.117188 -1.421875 17.191406 -2.128906 16.46875 -3.082031 C 15.417969 -4.472656 14.894531 -6.199219 14.894531 -8.261719 L 14.894531 -20.695312 L 19.417969 -20.695312 L 19.417969 -16.171875 Z M 13.710938 -16.171875 "/></g></g></g><g fill="#106b0b" fill-opacity="1"><g transform="translate(112.408497, 50.747301)"><g/></g></g><g fill="#106b0b" fill-opacity="1"><g transform="translate(124.246494, 50.747301)"><g><path d="M 16.566406 -34.84375 C 19.40625 -34.84375 22.046875 -34.316406 24.480469 -33.253906 C 26.894531 -32.207031 28.992188 -30.753906 30.773438 -28.898438 C 32.546875 -27.050781 33.910156 -24.921875 34.867188 -22.515625 C 35.816406 -20.117188 36.292969 -17.582031 36.292969 -14.90625 C 36.292969 -12.226562 35.816406 -9.691406 34.867188 -7.292969 C 33.910156 -4.886719 32.546875 -2.757812 30.773438 -0.910156 C 28.992188 0.945312 26.894531 2.394531 24.480469 3.445312 C 22.046875 4.507812 19.40625 5.035156 16.566406 5.035156 C 13.722656 5.035156 11.085938 4.507812 8.648438 3.445312 C 6.234375 2.394531 4.136719 0.945312 2.355469 -0.910156 C 0.585938 -2.757812 -0.78125 -4.886719 -1.734375 -7.292969 C -2.6875 -9.691406 -3.164062 -12.226562 -3.164062 -14.90625 C -3.164062 -17.582031 -2.6875 -20.117188 -1.734375 -22.515625 C -0.78125 -24.921875 0.585938 -27.050781 2.355469 -28.898438 C 4.136719 -30.753906 6.234375 -32.207031 8.648438 -33.253906 C 11.085938 -34.316406 13.722656 -34.84375 16.566406 -34.84375 Z M 16.566406 -25.796875 C 14.980469 -25.796875 13.542969 -25.515625 12.257812 -24.957031 C 10.953125 -24.390625 9.828125 -23.613281 8.886719 -22.628906 C 7.933594 -21.636719 7.195312 -20.484375 6.675781 -19.175781 C 6.148438 -17.851562 5.886719 -16.429688 5.886719 -14.90625 C 5.886719 -13.378906 6.148438 -11.957031 6.675781 -10.632812 C 7.195312 -9.324219 7.933594 -8.171875 8.886719 -7.179688 C 9.828125 -6.195312 10.953125 -5.417969 12.257812 -4.851562 C 13.542969 -4.292969 14.980469 -4.015625 16.566406 -4.015625 C 18.152344 -4.015625 19.585938 -4.292969 20.871094 -4.851562 C 22.175781 -5.417969 23.300781 -6.195312 24.246094 -7.179688 C 25.199219 -8.171875 25.933594 -9.324219 26.453125 -10.632812 C 26.980469 -11.957031 27.242188 -13.378906 27.242188 -14.90625 C 27.242188 -16.429688 26.980469 -17.851562 26.453125 -19.175781 C 25.933594 -20.484375 25.199219 -21.636719 24.246094 -22.628906 C 23.300781 -23.613281 22.175781 -24.390625 20.871094 -24.957031 C 19.585938 -25.515625 18.152344 -25.796875 16.566406 -25.796875 Z M 16.566406 -19.664062 C 15.601562 -19.664062 14.820312 -19.472656 14.230469 -19.097656 C 13.59375 -18.6875 13.105469 -18.152344 12.769531 -17.484375 C 12.382812 -16.722656 12.191406 -15.859375 12.191406 -14.90625 C 12.191406 -13.96875 12.386719 -13.113281 12.777344 -12.328125 C 13.113281 -11.65625 13.597656 -11.117188 14.230469 -10.710938 C 14.820312 -10.335938 15.601562 -10.144531 16.566406 -10.144531 C 17.550781 -10.144531 18.328125 -10.332031 18.902344 -10.699219 C 19.53125 -11.105469 20.011719 -11.648438 20.355469 -12.328125 C 20.746094 -13.113281 20.941406 -13.96875 20.941406 -14.90625 C 20.941406 -15.859375 20.746094 -16.722656 20.363281 -17.484375 C 20.019531 -18.160156 19.535156 -18.699219 18.902344 -19.109375 C 18.328125 -19.476562 17.550781 -19.664062 16.566406 -19.664062 Z M 16.566406 -28.710938 C 19.328125 -28.710938 21.742188 -28.046875 23.808594 -26.710938 C 25.816406 -25.417969 27.359375 -23.699219 28.441406 -21.566406 C 29.472656 -19.519531 29.988281 -17.296875 29.988281 -14.90625 C 29.988281 -12.546875 29.476562 -10.339844 28.449219 -8.28125 C 27.367188 -6.125 25.824219 -4.394531 23.808594 -3.097656 C 21.742188 -1.761719 19.328125 -1.097656 16.566406 -1.097656 C 13.839844 -1.097656 11.4375 -1.757812 9.359375 -3.085938 C 7.324219 -4.382812 5.765625 -6.117188 4.683594 -8.28125 C 3.65625 -10.339844 3.140625 -12.546875 3.140625 -14.90625 C 3.140625 -17.296875 3.65625 -19.519531 4.691406 -21.566406 C 5.773438 -23.707031 7.332031 -25.429688 9.359375 -26.722656 C 11.4375 -28.050781 13.839844 -28.710938 16.566406 -28.710938 Z M 16.566406 -28.710938 "/></g></g></g><g fill="#106b0b" fill-opacity="1"><g transform="translate(157.375871, 50.747301)"><g><path d="M 7.539062 4.523438 L -2.4375 4.523438 L -2.4375 -14.308594 C -2.4375 -16.109375 -2.101562 -17.738281 -1.421875 -19.199219 C -0.699219 -20.765625 0.375 -22.070312 1.796875 -23.113281 C 4.183594 -24.859375 7.132812 -25.730469 10.644531 -25.730469 C 14.160156 -25.730469 17.109375 -24.859375 19.492188 -23.113281 C 20.917969 -22.070312 21.992188 -20.765625 22.714844 -19.199219 C 23.390625 -17.738281 23.730469 -16.109375 23.730469 -14.308594 L 23.730469 4.523438 L 9.230469 4.523438 L 9.230469 -12.433594 C 9.230469 -12.511719 9.226562 -12.570312 9.222656 -12.613281 C 9.222656 -12.601562 9.230469 -12.578125 9.242188 -12.539062 C 9.316406 -12.296875 9.460938 -12.0625 9.675781 -11.832031 C 9.914062 -11.574219 10.1875 -11.394531 10.488281 -11.285156 C 10.566406 -11.257812 10.632812 -11.238281 10.691406 -11.230469 L 10.699219 -11.230469 C 10.6875 -11.230469 10.667969 -11.230469 10.644531 -11.230469 C 10.625 -11.230469 10.605469 -11.230469 10.589844 -11.230469 L 10.601562 -11.230469 C 10.660156 -11.238281 10.726562 -11.257812 10.804688 -11.285156 C 11.105469 -11.394531 11.375 -11.574219 11.617188 -11.832031 C 11.832031 -12.0625 11.976562 -12.296875 12.050781 -12.539062 C 12.0625 -12.578125 12.070312 -12.601562 12.070312 -12.613281 C 12.066406 -12.570312 12.0625 -12.511719 12.0625 -12.433594 L 12.0625 4.523438 Z M 7.539062 -4.523438 L 7.539062 0 L 3.011719 0 L 3.011719 -12.433594 C 3.011719 -14.734375 3.679688 -16.59375 5.011719 -18.019531 C 5.769531 -18.828125 6.6875 -19.425781 7.769531 -19.8125 C 8.648438 -20.125 9.605469 -20.28125 10.644531 -20.28125 C 11.683594 -20.28125 12.644531 -20.125 13.523438 -19.8125 C 14.601562 -19.425781 15.523438 -18.828125 16.28125 -18.019531 C 17.613281 -16.59375 18.28125 -14.734375 18.28125 -12.433594 L 18.28125 0 L 13.753906 0 L 13.753906 -4.523438 L 19.207031 -4.523438 L 19.207031 0 L 14.679688 0 L 14.679688 -14.308594 C 14.679688 -14.78125 14.621094 -15.144531 14.503906 -15.398438 C 14.433594 -15.550781 14.3125 -15.6875 14.148438 -15.808594 C 13.355469 -16.390625 12.1875 -16.683594 10.644531 -16.683594 C 9.105469 -16.683594 7.9375 -16.390625 7.144531 -15.808594 C 6.976562 -15.6875 6.859375 -15.550781 6.789062 -15.398438 C 6.671875 -15.144531 6.613281 -14.78125 6.613281 -14.308594 L 6.613281 0 L 2.085938 0 L 2.085938 -4.523438 Z M 7.539062 -4.523438 "/></g></g></g><g fill="#106b0b" fill-opacity="1"><g transform="translate(178.667238, 50.747301)"><g><path d="M 17.648438 -13.867188 L 27.988281 -12.746094 L 27.105469 -7.949219 C 26.640625 -5.433594 25.695312 -3.195312 24.269531 -1.234375 C 22.8125 0.769531 20.976562 2.320312 18.765625 3.414062 C 16.585938 4.496094 14.164062 5.035156 11.496094 5.035156 C 8.496094 5.035156 5.839844 4.304688 3.527344 2.847656 C 1.257812 1.417969 -0.492188 -0.484375 -1.71875 -2.859375 C -2.910156 -5.160156 -3.503906 -7.65625 -3.503906 -10.347656 C -3.503906 -13.074219 -2.90625 -15.582031 -1.710938 -17.871094 C -0.484375 -20.226562 1.261719 -22.117188 3.527344 -23.542969 C 5.839844 -25.003906 8.496094 -25.730469 11.496094 -25.730469 C 13.972656 -25.730469 16.164062 -25.316406 18.074219 -24.480469 C 19.992188 -23.644531 21.59375 -22.527344 22.890625 -21.125 C 24.105469 -19.8125 25.042969 -18.394531 25.699219 -16.871094 L 27.117188 -13.59375 L 10.15625 -0.890625 L 2.054688 -11.476562 L 11.03125 -18.402344 L 13.796875 -14.820312 L 10.449219 -11.777344 C 10.695312 -11.503906 10.957031 -11.324219 11.238281 -11.230469 C 11.246094 -11.226562 11.257812 -11.222656 11.261719 -11.222656 C 11.261719 -11.222656 11.257812 -11.222656 11.253906 -11.222656 C 11.21875 -11.230469 11.171875 -11.230469 11.113281 -11.230469 L 11.109375 -11.234375 C 11.144531 -11.242188 11.183594 -11.253906 11.222656 -11.273438 C 11.257812 -11.289062 11.285156 -11.308594 11.308594 -11.324219 C 11.300781 -11.316406 11.285156 -11.300781 11.261719 -11.273438 C 11.085938 -11.066406 10.996094 -10.757812 10.996094 -10.347656 C 10.996094 -10.230469 11.042969 -10.085938 11.128906 -9.914062 C 11.21875 -9.742188 11.355469 -9.589844 11.539062 -9.460938 C 11.523438 -9.472656 11.507812 -9.480469 11.496094 -9.484375 C 11.539062 -9.472656 11.609375 -9.464844 11.710938 -9.464844 C 12.054688 -9.464844 12.328125 -9.546875 12.539062 -9.707031 C 12.609375 -9.757812 12.660156 -9.890625 12.695312 -10.097656 L 13.386719 -14.328125 Z M 16.671875 -4.871094 L 17.160156 -9.367188 L 21.628906 -8.640625 C 21.425781 -7.402344 21.03125 -6.273438 20.445312 -5.253906 C 19.832031 -4.1875 19.027344 -3.273438 18.035156 -2.515625 C 16.203125 -1.113281 14.09375 -0.414062 11.710938 -0.414062 C 9.671875 -0.414062 7.867188 -0.96875 6.304688 -2.078125 C 4.925781 -3.054688 3.855469 -4.28125 3.09375 -5.757812 C 2.328125 -7.230469 1.949219 -8.761719 1.949219 -10.347656 C 1.949219 -12.949219 2.738281 -15.195312 4.324219 -17.085938 C 5.1875 -18.117188 6.195312 -18.90625 7.34375 -19.449219 C 8.511719 -20.003906 9.769531 -20.28125 11.113281 -20.28125 C 12.171875 -20.28125 13.167969 -20.125 14.101562 -19.816406 C 15.316406 -19.410156 16.332031 -18.757812 17.144531 -17.863281 L 20.445312 -14.234375 L 11.152344 -7.0625 L 8.390625 -10.644531 L 11.980469 -13.394531 L 14.621094 -9.945312 L 11.027344 -7.195312 L 8.316406 -10.816406 L 18.835938 -18.695312 L 21.546875 -15.074219 L 17.394531 -13.277344 C 17.144531 -13.855469 16.761719 -14.425781 16.246094 -14.984375 C 15.808594 -15.457031 15.210938 -15.855469 14.457031 -16.1875 C 13.699219 -16.515625 12.714844 -16.683594 11.496094 -16.683594 C 10.238281 -16.683594 9.191406 -16.417969 8.355469 -15.890625 C 7.46875 -15.328125 6.785156 -14.59375 6.3125 -13.683594 C 5.800781 -12.707031 5.546875 -11.59375 5.546875 -10.347656 C 5.546875 -9.121094 5.804688 -8.011719 6.320312 -7.019531 C 6.792969 -6.101562 7.472656 -5.363281 8.355469 -4.808594 C 9.191406 -4.277344 10.238281 -4.015625 11.496094 -4.015625 C 12.75 -4.015625 13.832031 -4.242188 14.75 -4.691406 C 15.632812 -5.128906 16.367188 -5.753906 16.953125 -6.558594 C 17.570312 -7.410156 17.988281 -8.421875 18.207031 -9.59375 L 22.65625 -8.773438 L 22.167969 -4.273438 Z M 16.671875 -4.871094 "/></g></g></g><g fill="#c1ff72" fill-opacity="1"><g transform="translate(13.020379, 50.747301)"><g><path d="M 18.78125 -29.8125 L 18.78125 -24.265625 L 10.265625 -24.265625 C 9.492188 -24.265625 8.929688 -24.046875 8.578125 -23.609375 C 8.222656 -23.171875 8.046875 -22.640625 8.046875 -22.015625 C 8.046875 -21.554688 8.328125 -21.0625 8.890625 -20.53125 C 9.460938 -20.007812 10.195312 -19.441406 11.09375 -18.828125 C 11.988281 -18.222656 12.945312 -17.566406 13.96875 -16.859375 C 14.988281 -16.148438 15.945312 -15.382812 16.84375 -14.5625 C 17.738281 -13.738281 18.46875 -12.875 19.03125 -11.96875 C 19.601562 -11.0625 19.890625 -10.082031 19.890625 -9.03125 C 19.890625 -7.976562 19.753906 -6.921875 19.484375 -5.859375 C 19.210938 -4.796875 18.753906 -3.820312 18.109375 -2.9375 C 17.472656 -2.0625 16.613281 -1.351562 15.53125 -0.8125 C 14.457031 -0.269531 13.097656 0 11.453125 0 L 1.484375 0 L 1.484375 -5.96875 L 11.28125 -5.96875 C 11.851562 -5.96875 12.320312 -6.164062 12.6875 -6.5625 C 13.050781 -6.957031 13.234375 -7.46875 13.234375 -8.09375 C 13.234375 -8.632812 12.945312 -9.171875 12.375 -9.703125 C 11.8125 -10.242188 11.082031 -10.8125 10.1875 -11.40625 C 9.300781 -12.007812 8.347656 -12.65625 7.328125 -13.34375 C 6.304688 -14.039062 5.347656 -14.816406 4.453125 -15.671875 C 3.554688 -16.523438 2.820312 -17.460938 2.25 -18.484375 C 1.6875 -19.503906 1.40625 -20.640625 1.40625 -21.890625 C 1.40625 -23.734375 1.785156 -25.234375 2.546875 -26.390625 C 3.316406 -27.554688 4.273438 -28.414062 5.421875 -28.96875 C 6.578125 -29.53125 7.707031 -29.8125 8.8125 -29.8125 Z M 18.78125 -29.8125 "/></g></g></g><g fill="#c1ff72" fill-opacity="1"><g transform="translate(34.311746, 50.747301)"><g><path d="M 7.53125 0 L 2.09375 0 L 2.09375 -29.8125 L 7.53125 -29.8125 L 7.53125 -19.125 L 7.625 -19.125 C 8.21875 -19.945312 8.90625 -20.5 9.6875 -20.78125 C 10.46875 -21.0625 11.34375 -21.203125 12.3125 -21.203125 C 13.445312 -21.203125 14.535156 -20.9375 15.578125 -20.40625 C 16.628906 -19.882812 17.492188 -19.113281 18.171875 -18.09375 C 18.859375 -17.070312 19.203125 -15.8125 19.203125 -14.3125 L 19.203125 0 L 13.75 0 L 13.75 -12.4375 C 13.75 -14.644531 12.710938 -15.75 10.640625 -15.75 C 8.566406 -15.75 7.53125 -14.644531 7.53125 -12.4375 Z M 7.53125 0 "/></g></g></g><g fill="#c1ff72" fill-opacity="1"><g transform="translate(55.603114, 50.747301)"><g><path d="M 11.84375 -15.75 C 10.332031 -15.75 9.113281 -15.28125 8.1875 -14.34375 C 7.269531 -13.40625 6.8125 -12.070312 6.8125 -10.34375 C 6.8125 -8.613281 7.269531 -7.28125 8.1875 -6.34375 C 9.113281 -5.40625 10.332031 -4.9375 11.84375 -4.9375 C 13.34375 -4.9375 14.550781 -5.40625 15.46875 -6.34375 C 16.394531 -7.28125 16.859375 -8.613281 16.859375 -10.34375 C 16.859375 -12.070312 16.394531 -13.40625 15.46875 -14.34375 C 14.550781 -15.28125 13.34375 -15.75 11.84375 -15.75 Z M 11.84375 -21.203125 C 14 -21.203125 15.851562 -20.703125 17.40625 -19.703125 C 18.96875 -18.710938 20.175781 -17.398438 21.03125 -15.765625 C 21.882812 -14.140625 22.3125 -12.332031 22.3125 -10.34375 C 22.3125 -8.382812 21.882812 -6.582031 21.03125 -4.9375 C 20.175781 -3.289062 18.96875 -1.96875 17.40625 -0.96875 C 15.851562 0.0195312 14 0.515625 11.84375 0.515625 C 9.707031 0.515625 7.851562 0.0195312 6.28125 -0.96875 C 4.707031 -1.96875 3.492188 -3.289062 2.640625 -4.9375 C 1.785156 -6.582031 1.359375 -8.382812 1.359375 -10.34375 C 1.359375 -12.332031 1.785156 -14.140625 2.640625 -15.765625 C 3.492188 -17.398438 4.707031 -18.710938 6.28125 -19.703125 C 7.851562 -20.703125 9.707031 -21.203125 11.84375 -21.203125 Z M 11.84375 -21.203125 "/></g></g></g><g fill="#c1ff72" fill-opacity="1"><g transform="translate(79.27912, 50.747301)"><g><path d="M 13.703125 -20.6875 L 19.421875 -20.6875 L 19.421875 -8.265625 C 19.421875 -7.210938 19.640625 -6.394531 20.078125 -5.8125 C 20.515625 -5.226562 21.226562 -4.9375 22.21875 -4.9375 C 24.207031 -4.9375 25.203125 -6.046875 25.203125 -8.265625 L 25.203125 -20.6875 L 30.90625 -20.6875 L 30.90625 -6.890625 C 30.90625 -5.222656 30.535156 -3.84375 29.796875 -2.75 C 29.066406 -1.65625 28.101562 -0.835938 26.90625 -0.296875 C 25.71875 0.242188 24.441406 0.515625 23.078125 0.515625 C 21.796875 0.515625 20.601562 0.238281 19.5 -0.3125 C 18.394531 -0.875 17.359375 -1.765625 16.390625 -2.984375 C 15.597656 -1.765625 14.660156 -0.875 13.578125 -0.3125 C 12.503906 0.238281 11.328125 0.515625 10.046875 0.515625 C 8.679688 0.515625 7.398438 0.242188 6.203125 -0.296875 C 5.015625 -0.835938 4.050781 -1.65625 3.3125 -2.75 C 2.582031 -3.84375 2.21875 -5.222656 2.21875 -6.890625 L 2.21875 -20.6875 L 7.921875 -20.6875 L 7.921875 -8.265625 C 7.921875 -6.046875 8.914062 -4.9375 10.90625 -4.9375 C 11.894531 -4.9375 12.609375 -5.226562 13.046875 -5.8125 C 13.484375 -6.394531 13.703125 -7.210938 13.703125 -8.265625 Z M 13.703125 -20.6875 "/></g></g></g><g fill="#c1ff72" fill-opacity="1"><g transform="translate(112.408497, 50.747301)"><g/></g></g><g fill="#c1ff72" fill-opacity="1"><g transform="translate(124.246494, 50.747301)"><g><path d="M 16.5625 -30.3125 C 18.78125 -30.3125 20.816406 -29.90625 22.671875 -29.09375 C 24.535156 -28.289062 26.144531 -27.175781 27.5 -25.75 C 28.863281 -24.332031 29.914062 -22.691406 30.65625 -20.828125 C 31.394531 -18.972656 31.765625 -17 31.765625 -14.90625 C 31.765625 -12.800781 31.394531 -10.816406 30.65625 -8.953125 C 29.914062 -7.097656 28.863281 -5.460938 27.5 -4.046875 C 26.144531 -2.628906 24.535156 -1.515625 22.671875 -0.703125 C 20.816406 0.109375 18.78125 0.515625 16.5625 0.515625 C 14.34375 0.515625 12.304688 0.109375 10.453125 -0.703125 C 8.597656 -1.515625 6.988281 -2.628906 5.625 -4.046875 C 4.257812 -5.460938 3.207031 -7.097656 2.46875 -8.953125 C 1.726562 -10.816406 1.359375 -12.800781 1.359375 -14.90625 C 1.359375 -17 1.726562 -18.972656 2.46875 -20.828125 C 3.207031 -22.691406 4.257812 -24.332031 5.625 -25.75 C 6.988281 -27.175781 8.597656 -28.289062 10.453125 -29.09375 C 12.304688 -29.90625 14.34375 -30.3125 16.5625 -30.3125 Z M 16.5625 -24.1875 C 14.71875 -24.1875 13.128906 -23.757812 11.796875 -22.90625 C 10.460938 -22.050781 9.441406 -20.921875 8.734375 -19.515625 C 8.023438 -18.117188 7.671875 -16.582031 7.671875 -14.90625 C 7.671875 -13.257812 8.023438 -11.722656 8.734375 -10.296875 C 9.441406 -8.878906 10.460938 -7.742188 11.796875 -6.890625 C 13.128906 -6.046875 14.71875 -5.625 16.5625 -5.625 C 18.4375 -5.625 20.03125 -6.046875 21.34375 -6.890625 C 22.664062 -7.742188 23.679688 -8.878906 24.390625 -10.296875 C 25.109375 -11.722656 25.46875 -13.257812 25.46875 -14.90625 C 25.46875 -16.582031 25.109375 -18.117188 24.390625 -19.515625 C 23.679688 -20.921875 22.664062 -22.050781 21.34375 -22.90625 C 20.03125 -23.757812 18.4375 -24.1875 16.5625 -24.1875 Z M 16.5625 -24.1875 "/></g></g></g><g fill="#c1ff72" fill-opacity="1"><g transform="translate(157.375871, 50.747301)"><g><path d="M 7.53125 0 L 2.09375 0 L 2.09375 -14.3125 C 2.09375 -16.582031 2.882812 -18.296875 4.46875 -19.453125 C 6.0625 -20.617188 8.117188 -21.203125 10.640625 -21.203125 C 13.171875 -21.203125 15.226562 -20.617188 16.8125 -19.453125 C 18.40625 -18.296875 19.203125 -16.582031 19.203125 -14.3125 L 19.203125 0 L 13.75 0 L 13.75 -12.4375 C 13.75 -14.644531 12.710938 -15.75 10.640625 -15.75 C 8.566406 -15.75 7.53125 -14.644531 7.53125 -12.4375 Z M 7.53125 0 "/></g></g></g><g fill="#c1ff72" fill-opacity="1"><g transform="translate(178.667238, 50.747301)"><g><path d="M 17.15625 -9.375 L 22.65625 -8.765625 C 22.3125 -6.921875 21.628906 -5.296875 20.609375 -3.890625 C 19.585938 -2.484375 18.300781 -1.394531 16.75 -0.625 C 15.207031 0.132812 13.457031 0.515625 11.5 0.515625 C 9.363281 0.515625 7.507812 0.0195312 5.9375 -0.96875 C 4.363281 -1.96875 3.148438 -3.289062 2.296875 -4.9375 C 1.441406 -6.582031 1.015625 -8.382812 1.015625 -10.34375 C 1.015625 -12.332031 1.441406 -14.140625 2.296875 -15.765625 C 3.148438 -17.398438 4.363281 -18.710938 5.9375 -19.703125 C 7.507812 -20.703125 9.363281 -21.203125 11.5 -21.203125 C 13.34375 -21.203125 14.929688 -20.910156 16.265625 -20.328125 C 17.597656 -19.742188 18.695312 -18.984375 19.5625 -18.046875 C 20.425781 -17.109375 21.085938 -16.117188 21.546875 -15.078125 L 11.03125 -7.203125 L 8.390625 -10.640625 L 13.796875 -14.8125 C 13.515625 -15.125 13.140625 -15.359375 12.671875 -15.515625 C 12.203125 -15.671875 11.679688 -15.75 11.109375 -15.75 C 9.773438 -15.75 8.664062 -15.222656 7.78125 -14.171875 C 6.90625 -13.128906 6.46875 -11.851562 6.46875 -10.34375 C 6.46875 -9.488281 6.679688 -8.648438 7.109375 -7.828125 C 7.535156 -7.003906 8.140625 -6.316406 8.921875 -5.765625 C 9.703125 -5.210938 10.628906 -4.9375 11.703125 -4.9375 C 13.066406 -4.9375 14.257812 -5.328125 15.28125 -6.109375 C 16.300781 -6.890625 16.925781 -7.976562 17.15625 -9.375 Z M 17.15625 -9.375 "/></g></g></g></svg>